<svg width="1160" height="900" viewBox="0 0 1160 900" fill="none" xmlns="http://www.w3.org/2000/svg">
<path d="M297.15 300.797C568.042 128.882 697.379 -101.952 728.186 -195.879L1027.76 -314C1210.48 -293.127 1583.72 -240.281 1614.96 -195.879C1654 -140.377 1560.78 -12.294 1447.64 -1.62042C1334.5 9.05313 1054.85 300.797 961.631 391.167C868.412 481.536 856.461 929.114 615.846 991.732C375.231 1054.35 90.7949 963.981 32.6329 828.783C-25.529 693.584 -41.4638 515.692 297.15 300.797Z" fill="#FF7200" fill-opacity="0.27"/>
<path d="M612 330.5C782 209.7 863.167 47.5 882.5 -18.5L1070.5 -101.5C1185.17 -86.8333 1419.4 -49.7 1439 -18.5C1463.5 20.5 1405 110.5 1334 118C1263 125.5 1087.5 330.5 1029 394C970.5 457.5 963 772 812 816C661 860 482.5 796.5 446 701.5C409.5 606.5 399.5 481.5 612 330.5Z" fill="#FF7200" fill-opacity="0.27"/>
</svg>
